# xmcd
#
# Track frame offsets: 
#        150
#        26977
#        52782
#        81240
#        110262
#        136767
#        158237
#        176415
#        198116
#        223807
#        245517
#
# Disc length: 3581 seconds
#
# Revision: 0
# Processed by: cddbd v1.5.2PL0 Copyright (c) Steve Scherf et al.
# Submitted via: ExactAudioCopy v0.99pb3
#
DISCID=8e0dfb0b
DTITLE=Big City Indians - BCI Tribial Vision
DYEAR=2009
DGENRE=Native American
TTITLE0=Like AnIndian
TTITLE1=Dark Age And A Memory
TTITLE2=Spirit Path
TTITLE3=Watcher Of Liife (Kachina)
TTITLE4=Vision Circle
TTITLE5=Walk With The Wind
TTITLE6=Buffalo Thunder
TTITLE7=Burning Rain
TTITLE8=United
TTITLE9=Sin Of Ignorance (32 Reasons)
TTITLE10=While A Shadow Smiles
EXTD=
EXTT0=
EXTT1=
EXTT2=
EXTT3=
EXTT4=
EXTT5=
EXTT6=
EXTT7=
EXTT8=
EXTT9=
EXTT10=
PLAYORDER=
